<svg xmlns="http://www.w3.org/2000/svg" style="isolation:isolate" width="400" height="415.2">
  <defs>
    <clipPath id="a">
      <path d="M0 0h400v415.2H0z"/>
    </clipPath>
  </defs>
  <g clip-path="url(#a)" fill-rule="evenodd">
    <path d="M30.553 185.612L7.056 248.877l11.748 17.314 39.575 22.879 23.498 13.603 16.812 9.276 21.525 1.236 1.855 14.841 12.986 13.604 106.356 68.637 63.072-79.768 18.551-34.009-1.855-16.077 13.604-1.855 58.743-82.86-16.695-44.521-70.493-34.009 7.421-9.894 17.932-16.695 3.71-19.169-10.455-32.773-12.424-11.749-27.193-9.275-21.657-8.657-26.589 21.642-22.261 14.841-2.473 14.222-5.856 6.183-17.023 7.42-56.27 35.865-3.092 14.84-8.657 8.657-2.474 6.184-16.695 6.183-71.729 40.619z" fill="#23ACB4"/>
    <path d="M332.869 287.183c.795 4.377.738 8.479-.602 12.464-.586 1.741-1.297 3.505-2.299 5.03-20.063 30.529-40.094 61.079-61.466 90.719-2.65 3.674-5.426 7.266-8.303 10.764-6.022 7.32-13.987 9.707-23.174 8.846-2.788-.262-5.28-1.199-7.688-2.65-25.576-15.412-51.048-30.991-75.934-47.504-9.499-6.302-18.93-12.706-27.799-19.89-1.067-.864-2.07-1.808-3.138-2.671-5.869-4.74-8.381-11.202-9.473-18.397-.142-.938-.258-1.88-.404-2.949-1.265.117-2.405.271-3.549.321-7.668.337-14.865-1.491-21.564-5.107-16.489-8.897-32.822-18.073-48.725-27.992-8.099-5.051-16.12-10.225-23.62-16.152-1.83-1.447-3.572-3.007-5.325-4.549-9.446-8.309-12.649-23.25-7.036-35.536 2.335-5.113 4.535-10.291 6.684-15.486 4.274-10.333 8.471-20.7 12.698-31.053.285-.699.624-1.385.822-2.108 1.419-5.162 4.806-8.685 9.328-11.266 12.573-7.179 25.15-14.35 37.724-21.528 8.045-4.592 16.083-9.195 24.131-13.783 4.22-2.406 8.681-4.156 13.586-4.338 2.237-.083 4.488.234 6.941.383.163-.261.478-.696.725-1.168 4.556-8.693 9.105-17.389 13.649-26.088.318-.607.607-1.231.873-1.863 1.13-2.684 2.976-4.742 5.412-6.309 11.258-7.238 22.514-14.479 33.764-21.731 4.616-2.975 9.215-5.976 13.817-8.972 4.909-3.196 10.227-4.932 16.143-4.561.336.021.675.003 1.093.003.473-.867.941-1.695 1.381-2.537 2.703-5.169 5.406-10.339 8.091-15.518.344-.665.725-1.359.85-2.081.727-4.194 3.158-7.208 6.46-9.679 3.903-2.921 7.774-5.887 11.66-8.831 8.376-6.344 16.741-12.702 25.132-19.026 4.393-3.31 9.285-4.956 14.843-4.215 2.35.314 4.525 1.122 6.513 2.393 12.878 8.234 26.94 13.448 41.873 16.442 1.679.337 3.387.534 5.079.809 5.732.932 9.387 4.564 10.776 10.146 1.041 4.187 2.492 8.273 3.783 12.397 1.988 6.35 3.987 12.696 5.996 19.039.662 2.09 1.559 4.125 2.018 6.256 1.419 6.583.228 12.859-2.885 18.735-1.374 2.593-2.963 5.143-4.849 7.379-5.578 6.613-11.353 13.06-17.053 19.57-.45.514-.922 1.009-1.496 1.636.596.422 1.113.825 1.664 1.174 16.333 10.323 33.899 17.629 52.83 21.597 1.474.309 2.994.478 4.414.948 3.955 1.309 7.051 3.715 8.679 7.648 4.252 10.269 8.416 20.573 11.722 31.2 1.498 4.815 2.375 9.712 2.359 14.779-.021 6.369-1.714 12.168-5.369 17.417-9.616 13.806-19.159 27.663-28.79 41.458-5.936 8.501-12.064 16.87-17.946 25.408-3.693 5.361-8.232 9.352-15.026 10.577zm-181.42-13.296c-.513.854-.941 1.547-1.351 2.25-6.708 11.502-13.395 23.018-20.143 34.498-1.031 1.755-1.788 3.563-1.963 5.571-.528 6.074.322 11.662 5.628 15.666 4.329 3.266 8.532 6.705 12.945 9.851 15.377 10.963 31.288 21.123 47.325 31.08 14.166 8.795 28.435 17.426 42.67 26.11.749.457 1.585.982 2.417 1.053 3.719.319 7.138-.401 9.581-3.551 2.987-3.852 6.081-7.634 8.857-11.634 11.429-16.469 22.839-32.954 34.093-49.542 8.48-12.499 16.702-25.171 25.066-37.748 1.542-2.319 2.081-4.784 1.281-7.44-.77-2.557-1.513-5.148-2.592-7.58-2.754-6.208-5.686-12.338-8.554-18.495-.253-.541-.56-1.057-.886-1.664-.437.372-.767.618-1.056.904-4.496 4.44-9.049 8.823-13.464 13.341-12.438 12.725-24.425 25.867-36.174 39.228-2.753 3.131-6.007 5.638-9.796 7.393-4.196 1.944-8.506 2.438-13.004 1.002-28.659-9.15-53.919-24.007-75.573-44.929-1.766-1.706-3.456-3.49-5.307-5.364zM31.633 202.448c-.347.824-.591 1.389-.824 1.958-3.817 9.337-7.619 18.679-11.459 28.006-.703 1.708-1.526 3.368-2.353 5.022-1.754 3.51-2.217 7.156-1.406 11.003.837 3.976 3.18 6.898 6.211 9.432 5.649 4.725 11.705 8.879 17.874 12.876 17.87 11.579 36.432 21.972 55.146 32.1 1.795.971 3.752 1.714 5.715 2.285 4.444 1.293 8.911 1.51 13.318-.291 1.7-.695 2.976-1.719 3.939-3.386 8.379-14.505 16.845-28.96 25.268-43.439.549-.944.994-1.954 1.421-2.961 1.226-2.891 2.914-5.421 5.399-7.405 10.68-8.53 21.35-17.072 32.004-25.633 2.563-2.06 5.052-4.213 7.681-6.412-4.95-8.744-9.84-17.383-14.775-26.1-.698.419-1.231.712-1.737 1.047-10.025 6.623-20.097 13.174-30.053 19.899-10.131 6.841-20.151 13.846-29.562 21.678-8.708 7.247-18.332 8.485-28.672 4.101-3.973-1.685-7.852-3.614-11.686-5.602-14.563-7.549-28.282-16.358-40.466-27.425-.243-.22-.521-.401-.983-.753zm267.391 45.276c-1.957-.87-3.535-1.649-5.168-2.285-16.852-6.566-32.973-14.617-48.438-23.971-6.517-3.942-12.894-8.115-19.323-12.202-.888-.564-1.735-1.114-2.859-.809-1.798.489-3.488 1.119-4.935 2.402-17.221 15.269-34.977 29.895-53.08 44.103-1.984 1.557-3.963 3.122-5.985 4.716.288.381.471.673.701.92 1.967 2.109 3.89 4.263 5.925 6.306 13.902 13.954 29.909 24.928 47.596 33.508 7.349 3.566 14.89 6.645 22.703 9.061 1.243.384 2.319.359 3.308-.365 1.487-1.088 3.035-2.152 4.302-3.471 2.425-2.523 4.653-5.235 6.994-7.841 13.128-14.616 26.454-29.046 40.551-42.743 2.408-2.339 4.865-4.628 7.708-7.329zm28.418 24.719c3.19.137 5.608-.804 7.165-3.478.207-.354.483-.667.721-1.003 7.182-10.141 14.411-20.248 21.532-30.431 8.458-12.095 16.818-24.26 25.233-36.385 1.356-1.953 2.34-4.05 2.559-6.428.292-3.162.31-6.354-.67-9.394-1.997-6.197-4.157-12.34-6.258-18.503-.054-.159-.213-.283-.417-.543-.752.717-1.457 1.357-2.127 2.03-11.103 11.15-21.808 22.656-31.725 34.889-5.088 6.277-11.903 8.595-19.793 7.729-2.841-.312-5.651-1.056-8.427-1.785-23.331-6.123-44.672-16.215-63.236-31.82-.394-.331-.859-.576-1.411-.941-4.591 7.356-9.086 14.556-13.612 21.808.582.414 1.015.745 1.47 1.042 19.459 12.709 39.712 23.906 61.463 32.249 3.02 1.159 5.923 2.543 8.503 4.533 2.725 2.103 4.858 4.628 5.871 7.995.215.718.563 1.399.88 2.083 3.782 8.152 7.567 16.303 11.355 24.452.288.62.597 1.229.924 1.901zm-162.697-94.644c-.93-.382-1.479-.614-2.032-.834-10.269-4.102-20.238-8.831-29.847-14.312-7.465-4.258-14.673-8.905-21.484-14.151-1.187-.914-2.378-1.374-3.808-.858-1.924.693-3.918 1.268-5.719 2.208-3.406 1.776-6.694 3.777-10.032 5.681-17.167 9.797-34.337 19.59-51.497 29.4-.855.489-1.628 1.124-2.492 1.727.403.571.595.947.88 1.229 1.61 1.595 3.181 3.237 4.877 4.736 14.222 12.577 30.331 22.161 47.621 29.84 4.423 1.965 8.508 1.289 12.292-1.802 3.987-3.258 8.03-6.456 12.169-9.518 15.022-11.114 30.662-21.325 46.304-31.531.8-.522 1.597-1.047 2.768-1.815zm-37.219-36.571c.17.211.239.341.345.419.442.325.887.646 1.345.947 14.684 9.654 30.343 17.328 46.925 23.139 1.013.356 2.009.893 2.863 1.541 2.298 1.744 3.904 4.019 4.819 6.776.257.775.576 1.544.976 2.254 5.191 9.205 10.4 18.4 15.611 27.594.289.509.642.982 1.029 1.569 2.333-2.046 4.6-3.937 6.756-5.949 3.424-3.196 7.532-5.003 12.037-5.869 1.378-.265 2.172-.795 2.873-1.927 6.332-10.207 12.707-20.387 19.062-30.579.362-.581.767-1.169.965-1.811 1.005-3.258 2.999-5.836 5.446-8.11 5.634-5.236 11.279-10.46 16.918-15.689.548-.508 1.092-1.02 1.686-1.575-3.234-7.207-6.426-14.322-9.703-21.626-.784.615-1.419 1.119-2.06 1.614-12.56 9.684-25.061 19.443-37.707 29.012-5.399 4.085-11.571 6.469-18.423 6.932-4.313.291-8.415-.532-12.555-1.67-18.1-4.973-34.286-13.448-48.324-25.954-.176-.158-.406-.256-.729-.455-3.452 6.6-6.815 13.031-10.155 19.417zm241.776 11.562c-.351-.272-.444-.399-.557-.423-17.949-3.735-34.756-10.447-50.589-19.606-4.503-2.606-8.764-5.633-13.104-8.516-.799-.531-1.525-.461-2.332-.209-1.935.605-3.601 1.65-5.1 3.004-3.668 3.315-7.381 6.582-11.031 9.917-9.023 8.245-18.022 16.517-27.024 24.786-.428.393-.786.862-1.12 1.232 1.481 1.219 2.792 2.311 4.119 3.385 1.495 1.209 2.975 2.439 4.511 3.594 13.069 9.826 27.537 16.936 43.064 21.914 4.754 1.524 9.608 2.769 14.467 3.923 2.937.696 5.491-.166 7.495-2.657 10.561-13.124 22.056-25.4 34.034-37.232 1.019-1.007 2.043-2.009 3.167-3.112zM220.338 56.374c-2.39 4.579-4.69 8.987-7.07 13.547 2.257 1.276 4.244 2.49 6.309 3.553 11.838 6.093 24.422 10.114 37.312 13.243 4.386 1.065 7.434 3.544 9.261 7.696 4.008 9.108 8.11 18.174 12.183 27.253.211.472.509.906.844 1.492 2.944-2.632 5.747-5.151 8.564-7.654 4.103-3.645 8.813-6.043 14.286-6.773.953-.127 1.632-.464 2.288-1.144 6.73-6.973 13.307-14.084 19.395-21.627 1.59-1.97 3.059-4.062 4.364-6.23 1.441-2.394 2.196-5.074 1.802-7.891-.196-1.4-.805-2.741-1.233-4.107-1.947-6.221-3.893-12.441-5.847-18.659-.264-.84-.574-1.665-.915-2.648-.661.519-1.212.916-1.723 1.36-8.922 7.746-17.892 15.439-26.742 23.268-7.244 6.408-15.252 8.365-24.593 5.342-13.389-4.333-26.617-9.037-39.25-15.285-3.008-1.488-5.974-3.061-9.235-4.736zm27.76 43.798c-8.919-2.409-17.254-5.122-25.365-8.495-8.202-3.41-16.141-7.332-23.034-13.006-1.842-1.516-3.467-1.681-5.441-.883-.885.358-1.77.765-2.569 1.282-14.811 9.582-29.609 19.183-44.405 28.787-.378.246-.702.576-1.134.935 7.036 6.401 14.5 11.95 22.803 16.347 7.866 4.165 16.285 6.851 24.801 9.252 1.479.417 3.134.417 4.688.316 4.401-.287 8.143-2.246 11.559-4.913.866-.675 1.715-1.372 2.584-2.042 11.256-8.678 22.516-17.351 33.769-26.033.52-.401.986-.871 1.744-1.547zm64.732-66.201c-.103-.206-.119-.296-.158-.308-.196-.059-.397-.102-.597-.144-15.764-3.354-30.607-9.031-44.278-17.63-1.348-.848-2.552-.836-3.834-.068-.586.352-1.146.753-1.692 1.166-10.895 8.244-21.786 16.491-32.673 24.745-.52.394-.992.85-1.612 1.386.859.48 1.504.849 2.157 1.203 14.226 7.713 29.325 13.259 44.733 18.041 1.95.605 3.818.384 5.564-.586.95-.527 1.834-1.207 2.658-1.92 9.449-8.18 18.882-16.378 28.316-24.575.498-.433.97-.896 1.416-1.31z" fill="#ECECEC"/>
    <path d="M220.339 100.089c-2.187-.775-3.594.234-3.594.234s-11.293 9.52-15.49 13.291c-4.197 3.771-9.212 4.87-12.098 3.633-2.887-1.236-3.66-1.895-4.391-2.889-3.305-5.012.623-9.401 4.786-12.715 4.161-3.313 11.136-8.723 11.136-8.723.106-1.078-1.271-1.67-1.271-1.67s-6.328-4.032-7.113-4.426c-.786-.393-1.57.586-1.57.586l-17.488 12.338c-7.133 6.728-6.077 11.578-2.508 16.496 3.568 4.919 13.684 9.718 16.253 9.947 8.083 1.929 14.101.659 16.991-.564 2.89-1.223 9.171-4.269 13.968-9.159 4.797-4.89 13.076-9.879 13.626-11.713.549-1.834-11.237-4.666-11.237-4.666zm82.429 29.525c19.169 19.651 54.344 27.734 55.205 27.884.861.15.547.848.547.848s-1.887 1.977-2.436 2.529c-.548.552-2.575-.016-2.575-.016s-11.742-2.051-20.077-5.964c-2.013-.82-3.769 1.159-3.769 1.159s-19.2 24.954-20.712 25.985c-1.511 1.031-3.774.458-3.774.458s-11.205-5.45-12.235-6.596c-2.199-2.382-1.065-4.44-.594-5.002.47-.561 16.672-20.535 17.428-22.253.618-.687 1.305-1.305 1.923-1.855.619-.55-.003-1.424-1.621-2.581-1.617-1.156-8.029-5.11-10.762-10.025-.809-1.617.522-2.209.591-2.278.069-.069 1.534-1.629 1.922-2.064.388-.435.939-.229.939-.229zm-74.574 91.373c-2.433-1.604-4.166-.159-5.219.858-1.054 1.016-40.914 37.035-41.893 38.466-.978 1.432.042 2.385.042 2.385s12.682 10.954 14.746 12.266c2.064 1.313 3.611-.539 3.611-.539s12.367-12.783 13.603-12.887c1.237-.103 14.849.164 14.849.164s-5.269 23.944-5.524 26.216c-.255 2.272.554 2.326.73 2.514.176.187 11.27 8.081 13.954 8.197 2.685.116 2.83-2.82 2.83-2.82s4.226-26.702 4.565-29.558c.34-2.857 3.327-3.374 4.174-3.477.847-.102 27.356-2.589 30.261-3.51 2.905-.92 5.756-3.526 6.701-4.13.945-.604-.086-1.43-1.403-1.816-1.318-.386-9.196-2.704-9.196-2.704s-5.977-2.268-7.111-2.68c-1.134-.412-4.019.412-4.019.412l-12.162 1.752-9.482.207-7.73-.413-5.256-.824s12.249-12.954 13.287-14.619c1.039-1.665-.854-2.856-.854-2.856l-13.504-10.604zM55.838 185.809c-1.455-1.845.222-3.445 1.099-4.057.877-.612 38.961-24.148 39.641-24.572.68-.425 1.765.418 1.765.418s7.417 6.989 8.834 7.985c1.418.997.359 3.005.045 3.606-.315.6-7.774 14.033-7.774 14.033s27.002-5.173 29.205-5.651c2.204-.478 5.555.794 5.555.794s7.303 3.436 8.503 4.517c1.2 1.082-.167 1.917-.88 2.43-.713.513-35.893 27.316-37.52 28.546-1.626 1.231-3.313-.137-3.313-.137s-8.55-5.572-9.787-7.702 1.58-4.054 1.58-4.054l20.27-14.085 2.473-1.58s-19.944 4.154-21.103 4.619c-1.159.465-2.395-.634-2.395-.634s-4.604-3.367-5.016-3.779c-.413-.413 5.29-10.444 5.29-10.444s-22.443 15.127-24.138 16.152c-1.696 1.025-3.657-.211-3.657-.211l-8.677-6.194z" fill="#353D52"/>
  </g>
</svg>
